Coordinates
version=1
nRows=24
nColumns=22
inDegrees=yes

Units are S.I. units (second, meters, Newtons, ...)
If the header above contains a line with 'inDegrees', this indicates whether rotational values are in degrees (yes) or radians (no).

endheader
time	pelvis_tilt	pelvis_list	pelvis_rotation	pelvis_tx	pelvis_ty	pelvis_tz	hip_flexion_r	hip_adduction_r	hip_rotation_r	knee_angle_r	ankle_angle_r	subtalar_angle_r	hip_flexion_l	hip_adduction_l	hip_rotation_l	knee_angle_l	ankle_angle_l	subtalar_angle_l	lumbar_extension	lumbar_bending	lumbar_rotation
      3.67000000	     -3.15557966	      3.57498997	    177.92088605	      0.16392229	      0.92371533	     -0.32197440	      2.46020899	     -1.25948428	    -10.14992498	    -20.31169815	      7.94662756	      7.20972364	     20.43932668	     -6.56564285	     -8.87577592	    -67.37413474	     -1.69220591	     -5.85830100	    -10.01065666	     -2.62794327	      6.33824067
      3.68000000	     -3.31957658	      3.26889164	    178.45693401	      0.15707884	      0.92401834	     -0.32230889	      1.60229908	     -1.51486098	    -10.62486601	    -20.03516755	      8.29497808	      7.12673413	     21.15926139	     -6.30269103	     -9.76483650	    -66.14327167	     -0.78147782	     -5.71390617	    -10.14161937	     -2.89105376	      6.63518404
      3.69000000	     -3.45947270	      3.01608641	    178.97824841	      0.15018187	      0.92418006	     -0.32261475	      0.74602787	     -1.70067161	    -11.10639842	    -19.72669530	      8.62667304	      7.05758439	     21.82302327	     -6.11570682	    -10.65688930	    -64.71186277	      0.02287146	     -5.58917566	    -10.24675926	     -3.10331296	      6.92450095
      3.70000000	     -3.57570221	      2.81001886	    179.48127882	      0.14321665	      0.92420563	     -0.32289569	     -0.10226576	     -1.82459913	    -11.58401235	    -19.39655979	      8.95791008	      7.00112649	     22.42276857	     -6.00163106	    -11.56903684	    -63.07757648	      0.73416509	     -5.52296857	    -10.32338833	     -3.27560454	      7.21170478
      3.71000000	     -3.66670780	      2.64947527	    179.95667321	      0.13618847	      0.92409259	     -0.32314971	     -0.93183070	     -1.88957759	    -12.04579393	    -19.05389585	      9.27957066	      6.95242163	     22.95523450	     -5.96217867	    -12.52415183	    -61.24278843	      1.38822054	     -5.52106028	    -10.36927138	     -3.40866687	      7.49821985
      3.72000000	     -3.74535455	      2.51631284	    180.40017200	      0.12907600	      0.92387260	     -0.32337074	     -1.75219780	     -1.91785589	    -12.48350895	    -18.70794983	      9.59656144	      6.90364867	     23.39202736	     -5.97743137	    -13.54687091	    -59.19323951	      1.98972706	     -5.57809961	    -10.39575306	     -3.52636481	      7.79436003
      3.73000000	     -3.80409816	      2.40383211	    180.80577531	      0.12188654	      0.92353701	     -0.32354291	     -2.54815776	     -1.91997426	    -12.88935806	    -18.36778446	      9.91145395	      6.85693526	     23.73553036	     -6.03401940	    -14.65280192	    -56.92711529	      2.54462440	     -5.68277989	    -10.39451975	     -3.63379857	      8.10565522
      3.74000000	     -3.85274617	      2.29542211	    181.16864931	      0.11461571	      0.92310806	     -0.32365711	     -3.32502406	     -1.91803931	    -13.25392432	    -18.04367684	     10.22712445	      6.81009803	     23.96497267	     -6.11132900	    -15.86924299	    -54.43918315	      3.04373016	     -5.83599194	    -10.37657673	     -3.75012398	      8.43011386
      3.75000000	     -3.88859798	      2.18547691	    181.48216361	      0.10726869	      0.92258645	     -0.32369472	     -4.07668871	     -1.92132038	    -13.56460941	    -17.73895622	     10.54610543	      6.76693577	     24.07971807	     -6.19656861	    -17.22131605	    -51.73578302	      3.46536241	     -6.03075428	    -10.33890541	     -3.87832175	      8.76087797
      3.76000000	     -3.92661211	      2.06817060	    181.75277691	      0.09983281	      0.92200399	     -0.32362320	     -4.82390850	     -1.94175006	    -13.84129411	    -17.44794245	     10.84436904	      6.72819831	     24.06261154	     -6.26625140	    -18.70498628	    -48.82299563	      3.80082456	     -6.27482835	    -10.29761387	     -4.02192050	      9.12095524
      3.77000000	     -3.93980601	      1.94794577	    181.96855263	      0.09232132	      0.92131210	     -0.32343769	     -5.53131439	     -1.97771651	    -14.03894439	    -17.17968703	     11.15838468	      6.70687613	     23.95158158	     -6.32097430	    -20.34962993	    -45.73016400	      4.04989798	     -6.49875570	    -10.22018204	     -4.17341518	      9.50053526
      3.78000000	     -3.98159150	      1.82678221	    182.15927504	      0.08471830	      0.92059235	     -0.32310360	     -6.26778738	     -2.02769333	    -14.22998514	    -16.92071773	     11.42040566	      6.70973402	     23.70237353	     -6.35115600	    -22.16388090	    -42.48745066	      4.23033757	     -6.73058279	    -10.17198875	     -4.32807782	      9.83753971
      3.79000000	     -3.98133658	      1.71610244	    182.28784487	      0.07705149	      0.91972380	     -0.32264693	     -6.93831333	     -2.08953929	    -14.32561915	    -16.69724921	     11.70953385	      6.74431651	     23.41449425	     -6.36339886	    -24.15122470	    -39.15031516	      4.33801383	     -6.85528297	    -10.06439451	     -4.47484860	     10.21807250
      3.80000000	     -3.98784461	      1.62172201	    182.38735929	      0.06931104	      0.91877432	     -0.32199458	     -7.60794941	     -2.15887732	    -14.39846411	    -16.49323685	     11.96315872	      6.82098207	     23.06168025	     -6.34341443	    -26.28515161	    -35.76898699	      4.41975938	     -6.90573458	     -9.95629858	     -4.59604386	     10.59290816
      3.81000000	     -3.98851820	      1.56138795	    182.46609384	      0.06151605	      0.91771067	     -0.32114481	     -8.25904349	     -2.21778230	    -14.45334208	    -16.31567840	     12.18639053	      6.94786826	     22.69734256	     -6.30204770	    -28.51564578	    -32.42083115	      4.49985846	     -6.86108237	     -9.83388506	     -4.67295584	     10.96710330
      3.82000000	     -3.96885815	      1.54541772	    182.52448894	      0.05369092	      0.91649895	     -0.32010336	     -8.86856333	     -2.25654421	    -14.47026183	    -16.17604944	     12.40296429	      7.11686466	     22.37625627	     -6.25677050	    -30.81160542	    -29.19497240	      4.59844504	     -6.72197819	     -9.68224372	     -4.69217725	     11.31593297
      3.83000000	     -3.93630407	      1.57712684	    182.57786026	      0.04583268	      0.91516121	     -0.31885962	     -9.44909467	     -2.26876449	    -14.46658263	    -16.06787331	     12.59893784	      7.33383888	     22.11617387	     -6.20694806	    -33.08003702	    -26.15497112	      4.74387376	     -6.50479127	     -9.51011996	     -4.64962494	     11.63018950
      3.84000000	     -3.89309461	      1.65615990	    182.63144888	      0.03796841	      0.91370545	     -0.31743296	     -9.99371307	     -2.25549098	    -14.45809808	    -16.00638039	     12.75741355	      7.59553900	     21.93782696	     -6.16223319	    -35.22840989	    -23.37025959	      4.94807172	     -6.22775018	     -9.32379879	     -4.55439247	     11.93274485
      3.85000000	     -3.83475804	      1.78171471	    182.68475560	      0.03008623	      0.91215298	     -0.31584537	    -10.50051007	     -2.21206506	    -14.41052448	    -15.98612900	     12.89674962	      7.89414213	     21.84759653	     -6.13944206	    -37.20785176	    -20.88848294	      5.19210047	     -5.92008312	     -9.11762241	     -4.40642482	     12.19342774
      3.86000000	     -3.76069568	      1.96212668	    182.73080977	      0.02217202	      0.91052813	     -0.31414215	    -10.95451447	     -2.13333558	    -14.34978163	    -16.03203240	     12.98892854	      8.18833559	     21.84272572	     -6.16886003	    -38.95712552	    -18.75721065	      5.47984200	     -5.63385256	     -8.88579775	     -4.20847814	     12.48205547
      3.87000000	     -3.72678907	      2.15302755	    182.79427944	      0.01416505	      0.90894781	     -0.31228963	    -11.44076034	     -2.05484956	    -14.27850163	    -16.11446682	     13.02167070	      8.58173641	     21.83832136	     -6.21377375	    -40.46623861	    -16.99271598	      5.76577255	     -5.28623539	     -8.69469582	     -4.00634462	     12.71166882
      3.88000000	     -3.71363823	      2.36181130	    182.87170749	      0.00604462	      0.90740569	     -0.31030444	    -11.92558486	     -1.97168197	    -14.20315307	    -16.25613432	     12.96244691	      9.07409221	     21.84469748	     -6.29902052	    -41.71687955	    -15.62773639	      6.06100189	     -4.89693111	     -8.51607467	     -3.79673119	     12.90401220
      3.89000000	     -3.69873972	      2.61300811	    182.90630277	     -0.00220239	      0.90589185	     -0.30831464	    -12.36740036	     -1.86126250	    -14.02742795	    -16.46956089	     12.88813041	      9.42199475	     21.87918858	     -6.50273492	    -42.77688873	    -14.72155965	      6.35944620	     -4.67599623	     -8.31665186	     -3.56692031	     13.18065319
      3.90000000	     -3.72306311	      2.84912358	    182.93444482	     -0.01066944	      0.90450202	     -0.30621896	    -12.82723695	     -1.78196487	    -13.81489607	    -16.75071296	     12.72166705	      9.82182608	     21.86181072	     -6.74878240	    -43.64385952	    -14.23685134	      6.65142162	     -4.49226201	     -8.13906373	     -3.37093455	     13.43329642
